<svg version="1.1" id="Capa_1" xmlns="http://www.w3.org/2000/svg" x="0" y="0" viewBox="0 0 18 18" xml:space="preserve"><style>.st0{fill:#030104}</style><path class="st0" d="M9 0C4 0 0 4 0 9s4 9 9 9 9-4 9-9-4-9-9-9zm0 16c-3.9 0-7-3.1-7-7s3.1-7 7-7 7 3.1 7 7-3.1 7-7 7z"/><circle cx="9" cy="9" r="7.1" fill="none"/><path class="st0" d="M9 3.2c1.2 0 2.3.4 3.2 1-.7 1-1.6 1.8-2.5 2.4C9 5.4 8.3 4.4 7.5 3.4c.5-.1 1-.2 1.5-.2zm-2.8.7c.9 1 1.6 2 2.3 3.2-1.6.7-3.4.9-5.1.6.4-1.6 1.4-3 2.8-3.8zM3.2 9c.6.1 1.2.2 1.8.2 1.4 0 2.8-.3 4.1-.9.2.3.3.7.4 1-1.8.7-3.5 1.9-4.7 3.6-1-1-1.6-2.4-1.6-3.9zM9 14.8c-1.2 0-2.3-.4-3.3-1 1.1-1.5 2.6-2.6 4.3-3.2.4 1.3.7 2.6.8 4-.6.1-1.2.2-1.8.2zm1.2-7.1c1.2-.7 2.2-1.6 3-2.7 1 1 1.6 2.4 1.6 3.8-1.3-.2-2.7-.2-4 .1l-.6-1.2zm1.8 6.2c-.1-1.3-.4-2.5-.8-3.8 1.1-.2 2.3-.2 3.4 0-.3 1.7-1.3 3-2.6 3.8z"/></svg>