<?xml version="1.0" encoding="utf-8"?>
<!-- Generator: Adobe Illustrator 22.1.0, SVG Export Plug-In . SVG Version: 6.00 Build 0)  -->
<svg version="1.1" id="Layer_1" xmlns="http://www.w3.org/2000/svg" xmlns:xlink="http://www.w3.org/1999/xlink" x="0px" y="0px"
	 viewBox="0 0 128 128" style="enable-background:new 0 0 128 128;" xml:space="preserve">
<style type="text/css">
	.st0{fill:#525961;}
</style>
<g>
	<path class="st0" d="M23.7,63.9c0,0,0,0.1,0,0.1c0,9.4,3.3,18.5,9.4,25.8c3.2-4.9,14.3-20.3,33.5-26.5c0.1,0,0.3-0.1,0.4-0.1
		c-0.7-1.6-1.5-3.2-2.4-4.9C46.4,63.5,28.9,64,23.9,64C23.9,63.9,23.8,63.9,23.7,63.9z"/>
	<path class="st0" d="M60,49.8C54.1,39.4,48,30.7,46,28c-10.5,5.3-18.3,15-21.1,26.4C29.9,54.4,44,53.9,60,49.8z"/>
	<path class="st0" d="M87.7,69.3c-2.4,0-4.8,0.2-7.1,0.5C85,82,87.1,92.2,88,96.4c8.2-6.1,13.8-15,15.6-25
		C101.3,70.8,95.2,69.3,87.7,69.3z"/>
	<path class="st0" d="M56.3,24.5c2.4,3.3,8.4,11.8,14,22.1C82,42,88,35.6,89.9,33.2c-7.3-6.1-16.4-9.5-25.9-9.5
		C61.4,23.8,58.8,24,56.3,24.5z"/>
	<path class="st0" d="M96.1,39.7c-2.5,2.9-9.2,9.8-21.6,15.1c0.8,1.7,1.6,3.4,2.2,5c0.2,0.5,0.4,0.9,0.6,1.4
		c2.8-0.3,5.7-0.5,8.8-0.5c8.1,0,15.1,1.1,18.1,1.6C103.9,54.1,101,46.2,96.1,39.7z"/>
	<path class="st0" d="M78.9,101.5c-0.8-4.3-3.1-15.8-8.2-29.3C50.6,79.5,42.1,92.7,40,96.4c7,5.2,15.2,7.9,24,7.9
		C69.2,104.3,74.2,103.4,78.9,101.5z"/>
	<path class="st0" d="M64,0C28.7,0,0,28.7,0,64c0,35.3,28.7,64,64,64c35.3,0,64-28.7,64-64C128,28.7,99.3,0,64,0z M64,113.6
		c-27.4,0-49.6-22.3-49.6-49.6c0-27.4,22.3-49.6,49.6-49.6s49.6,22.3,49.6,49.6C113.6,91.4,91.4,113.6,64,113.6z"/>
</g>
</svg>
