<svg version="1.1" id="Layer_1" xmlns="http://www.w3.org/2000/svg" x="0" y="0" viewBox="0 0 128 128" xml:space="preserve"><style>.st0{fill:#525961}</style><path class="st0" d="M23.7 63.9v.1c0 9.4 3.3 18.5 9.4 25.8 3.2-4.9 14.3-20.3 33.5-26.5.1 0 .3-.1.4-.1-.7-1.6-1.5-3.2-2.4-4.9C46.4 63.5 28.9 64 23.9 64c0-.1-.1-.1-.2-.1zM60 49.8C54.1 39.4 48 30.7 46 28c-10.5 5.3-18.3 15-21.1 26.4 5 0 19.1-.5 35.1-4.6zm27.7 19.5c-2.4 0-4.8.2-7.1.5C85 82 87.1 92.2 88 96.4c8.2-6.1 13.8-15 15.6-25-2.3-.6-8.4-2.1-15.9-2.1zM56.3 24.5c2.4 3.3 8.4 11.8 14 22.1C82 42 88 35.6 89.9 33.2c-7.3-6.1-16.4-9.5-25.9-9.5-2.6.1-5.2.3-7.7.8zm39.8 15.2c-2.5 2.9-9.2 9.8-21.6 15.1.8 1.7 1.6 3.4 2.2 5 .2.5.4.9.6 1.4 2.8-.3 5.7-.5 8.8-.5 8.1 0 15.1 1.1 18.1 1.6-.3-8.2-3.2-16.1-8.1-22.6zm-17.2 61.8c-.8-4.3-3.1-15.8-8.2-29.3C50.6 79.5 42.1 92.7 40 96.4c7 5.2 15.2 7.9 24 7.9 5.2 0 10.2-.9 14.9-2.8z"/><path class="st0" d="M64 0C28.7 0 0 28.7 0 64s28.7 64 64 64 64-28.7 64-64S99.3 0 64 0zm0 113.6c-27.4 0-49.6-22.3-49.6-49.6 0-27.4 22.3-49.6 49.6-49.6s49.6 22.3 49.6 49.6c0 27.4-22.2 49.6-49.6 49.6z"/></svg>