<svg xmlns="http://www.w3.org/2000/svg" viewBox="0 0 512 384"><path d="M485 384H27c-2.9-1.1-6-2-8.8-3.3C8 376 2.9 367.3 0 357V138c83.7 33.5 167.4 66.9 251 100.5 3.5 1.4 6.4 1.4 9.9 0 83.7-33.6 167.4-67 251-100.5v219c-1.1 2.9-2 6-3.3 8.8C504 376 495.3 381.1 485 384z"/><path d="M512 27v59c-1.6.5-3.2 1-4.7 1.6-82.3 32.9-164.6 65.8-246.8 98.8-3.2 1.3-5.8 1.3-8.9 0-60-24.1-120.1-48.1-180.1-72.1C47.6 104.8 23.8 95.4 0 86V27c1.1-2.9 2-6 3.3-8.8C8 8 16.7 2.9 27 0h458c2.9 1.1 6 2 8.8 3.3C504 8 509.1 16.7 512 27z"/><path d="M0 86c23.8 9.4 47.6 18.8 71.4 28.3 60.1 24 120.1 48 180.1 72.1 3.2 1.3 5.8 1.3 8.9 0 82.3-33 164.6-65.9 246.8-98.8 1.5-.6 3.1-1.1 4.7-1.6v52c-83.7 33.5-167.4 66.9-251 100.5-3.5 1.4-6.4 1.4-9.9 0-83.6-33.6-167.3-67-251-100.5V86zM27 0C16.7 2.9 8 8 3.3 18.2 2 21 1.1 24.1 0 27V0h27zm485 27c-2.9-10.3-8-19-18.2-23.7C491 2 487.9 1.1 485 0h27v27zM0 357c2.9 10.3 8 19 18.2 23.7 2.8 1.3 5.9 2.2 8.8 3.3H0v-27zm485 27c10.3-2.9 19-8 23.7-18.2 1.3-2.8 2.2-5.9 3.3-8.8v27h-27z" fill="#fff"/></svg>