<svg version="1.1" id="Capa_1" xmlns="http://www.w3.org/2000/svg" x="0" y="0" viewBox="0 0 486.4 486.4" xml:space="preserve"><style>.st0{fill:#525961}</style><path class="st0" d="M243.2 0C108.9 0 0 108.9 0 243.2s108.9 243.2 243.2 243.2 243.2-108.9 243.2-243.2C486.4 108.9 377.5 0 243.2 0zm-67.9 406.8c-53.8 0-99.3-21.9-99.3-56.9 0-35.5 41.4-69.9 95.3-69.8l16.8-.2c-7.4-7.1-13.2-15.9-13.2-26.8 0-6.4 2.1-12.6 4.9-18.1l-9 .3c-44.2 0-73.8-31.5-73.8-70.5 0-38.2 40.9-71.1 84.4-71.1h97l-21.8 15.7h-30.7c20.4 7.8 31.3 31.6 31.3 56 0 20.5-11.3 38.1-27.4 50.6-15.7 12.3-18.6 17.4-18.6 27.8 0 8.9 16.8 24 25.5 30.2 25.6 18.1 33.9 34.9 33.9 63 0 35-33.9 69.8-95.3 69.8zm189.5-193.4v60.7h-30.4v-60.7h-60.8v-31h60.8v-60.8h30.4v60.8h60.8v31h-60.8z"/><path class="st0" d="M205.8 293c-7.4-2.4-15.5-3.8-24.1-3.9-37.2-.4-70.5 22.7-70.5 50.4 0 28.3 26.9 51.9 64.1 51.9 52.3 0 70.5-22.1 70.5-50.4 0-3.4-.4-6.7-1.2-10-4.1-16-18.6-24-38.8-38zm16.5-125.7c-4.3-32.8-28.1-59.1-53-59.9-25-.7-41.7 24.4-37.4 57.2 4.3 32.8 28.1 60 53 60.7 25 .9 41.8-25.1 37.4-58z"/></svg>