<svg xmlns="http://www.w3.org/2000/svg" viewBox="0 0 381.4 381.4"><path d="M79.5 365.5V158.9c17.5 0 31.8-14.2 31.8-31.8V95.3c0-17.5-14.2-31.8-31.8-31.8V15.9C79.5 7.2 72.3 0 63.6 0S47.7 7.2 47.7 15.9v47.7c-17.5 0-31.8 14.2-31.8 31.8v31.8c0 17.5 14.2 31.8 31.8 31.8v206.6c0 8.8 7.1 15.9 15.9 15.9s15.9-7.2 15.9-16zM47.7 127.1V95.3h31.8v31.8H47.7zM174.8 15.9v206.6c-17.5 0-31.8 14.2-31.8 31.8V286c0 17.5 14.2 31.8 31.8 31.8v47.7c0 8.8 7.1 15.9 15.9 15.9s15.9-7.1 15.9-15.9v-47.7c17.5 0 31.8-14.2 31.8-31.8v-31.8c0-17.5-14.2-31.8-31.8-31.8V15.9c0-8.7-7.1-15.9-15.9-15.9s-15.9 7.2-15.9 15.9zm31.8 238.4V286h-31.8v-31.8l31.8.1zm95.3-238.4v111.2c-17.5 0-31.8 14.2-31.8 31.8v31.8c0 17.5 14.2 31.8 31.8 31.8v143c0 8.8 7.2 15.9 15.9 15.9s15.9-7.1 15.9-15.9v-143c17.5 0 31.8-14.2 31.8-31.8v-31.8c0-17.5-14.2-31.8-31.8-31.8V15.9c0-8.7-7.2-15.9-15.9-15.9s-15.9 7.2-15.9 15.9zm31.8 143v31.8h-31.8v-31.8h31.8z" fill="#f2f2f2"/></svg>