<svg xmlns="http://www.w3.org/2000/svg" viewBox="0 0 82 30"><path d="M22.3.2V4L5.1 24.7h14v-3.2h3.2v5.9H2.1v-3.9L19 2.9H5.2v3.2H2V.2h20.3zM3 6.7l2.2 1.5-2.7-1.5H3zm1.3 21.4l2.6 1.8h-1l-2.6-1.8h1zm.8-21.4l2.6 1.8h-1L4 6.7h1.1zm1.3 21.4L9 29.9H7.9l-2.6-1.8h1.1zm.4-24.6l2.6 1.8h-.1V6L5.8 3.5h1zm2.5 3.2v.7L5.8 5v-.7l3.5 2.4zm0 1.5v.3h-.6L5.8 6.4v-.7l3.5 2.5zM6.6 23.8l.4.4h-.7l.3-.4zm.8-.9l1.8 1.3H8.1L7 23.4l.4-.5zm1.1 5.2l2.6 1.8H10l-2.6-1.8h1.1zM8.1 22l3.1 2.2h-1.1l-2.4-1.7.4-.5zm.8-18.5l2.6 1.8h-1L7.8 3.5h1.1zm0 17.6l3.3 2.3-.4.5-3.3-2.3.4-.5zm.7-1l3.3 2.3-.4.5-3.3-2.3.1-.1.3-.4zm.9 8l2.6 1.8h-1l-2.6-1.8h1zM11 3.5l2.6 1.8h-1.1L10 3.5h1zm-.6 15.7l3.3 2.3-.3.5-3.3-2.3.3-.5zm.8-.9l3.3 2.3-.4.4-3.3-2.3.1-.1.1-.1.2-.2zm.8-.9l3.3 2.3-.4.5-3.3-2.3.4-.5zm.7 10.7l2.6 1.8h-1.1l-2.6-1.8h1.1zm.4-24.6l2.6 1.8h-1.1L12 3.5h1.1zm-.4 12.9l3.3 2.3-.4.5-3.3-2.3.2-.2.2-.3zm.8-.9l3.3 2.3-.4.5-3.3-2.3.4-.5zm1.2 12.6l2.6 1.8h-1.1l-2.6-1.8h1.1zm-.4-13.5l3.3 2.3-.4.5-3.3-2.4.4-.4zm.9-11.1l1.7 1.2-.3.4-.1.1-2.3-1.6h1zm-.1 10.1l3.3 2.3-.4.5-3.3-2.3V14l.1-.1.3-.3zm.7-.9l3.3 2.3-.4.5-3.3-2.3.2-.3.1-.1.1-.1zm1.1 15.4l2.6 1.8h-1.1l-2.6-1.8h1.1zm.4-24.6l.3.3-.2.2-.2.2-1-.7h1.1zm-.7 8.3l3.3 2.3-.4.4-3.2-2.3.3-.4zm.7-.9l3.3 2.3-.4.5-3.2-2.3.3-.5zm.8-1l3.3 2.3-.4.5-3.3-2.3.2-.2.2-.3zm.8 18.2l2.6 1.8h-1.1l-2.6-1.8h1.1zm0-19.1l3.3 2.3-.4.5-3.3-2.3.1-.1.3-.4zm.8-.9l3.3 2.3-.4.5-3.3-2.3.4-.5zm1.3 20l2.6 1.8h-1L20 28.1h1zm-.6-20.9l3.3 2.3-.4.4L20 7.7l.2-.2.2-.3zm.8-.9l3.3 2.3-.4.4-3.3-2.3.4-.4zm.8-1l3.3 2.3-.4.4-3.3-2.3.2-.3.2-.1zm.8 22.6l2.9 2h-1.1L22 28.1h.8v-.2zm-.1-23.5L26 6.7l-.4.5-3.3-2.3.2-.2.1-.2.1-.1zm3.6 20.1v.7l-3.5-2.4V22l3.5 2.5zm0 1.4v.7l-3.5-2.4v-.7l3.5 2.4zm0 1.5v.7l-3.5-2.4V25l3.5 2.4zm0 1.4v.7l-3.5-2.4v-.7l3.5 2.4zm.1-26.2v.7L22.9.9V.2l.2.2 3.3 2.2zm0 1.4v.7l-3.5-2.4v-.7L26.4 4zm0 1.5v.7l-3.5-2.4v-.7l3.5 2.4zm-.1 18.1v.2l-1.3-1 1.3.8zm20.6-2.1v5.9H27.4v-2.8h2.7V2.9h-2.7V.1H47V6h-3.4V2.9H33.3v9.3h9.9V15h-9.9v9.8h10.2v-3.2h3.4zM29.5 4.4l-1.6-.9h.4l1.2.9zm.4 23.6l2.6 1.8h-1.1L28.8 28h1.1zm-.4-24.5v.2l-.2-.2h.2zM32 28l2.6 1.8h-1L31 28h1zm2.1 0l2.6 1.8h-1.1L33 28h1.1zm3.2-22.6v.7l-3.4-2.4v-.2h.6l2.8 1.9zm0 1.5v.7l-3.4-2.4v-.7l3.4 2.4zm0 1.5v.7l-3.4-2.4V6l3.4 2.4zm0 1.4v.7l-3.4-2.4v-.7l3.4 2.4zm0 1.5v.3h-.7l-2.8-2v-.7l3.5 2.4zm-3.4-1l1.8 1.3h-1.1l-.7-.6v-.7zm3.4 8.3v.7l-3.4-2.4v-.7l3.4 2.4zm0 1.5v.7l-3.4-2.4v-.7l3.4 2.4zm0 1.5v.7l-3.4-2.4v-.7l3.4 2.4zm0 1.4v.7l-3.4-2.4v-.7l3.4 2.4zm-3.4-1l3 2.1h-1.1l-1.9-1.3V22zm0 1.5l.8.6h-.8v-.6zm1.1-8l2.6 1.8h-.2v.6L34 15.5h1zM36.2 28l2.6 1.8h-1.1L35.1 28h1.1zm.4-24.5l2.6 1.8h-1l-2.7-1.8h1.1zm.5 12l2.6 1.8h-1.1L36 15.5h1.1zM38.2 28l2.6 1.8h-1L37.2 28h1zm.5-24.5l2.6 1.8h-1.1l-2.6-1.8h1.1zm.4 12l2.6 1.8h-1.1L38 15.5h1.1zM40.4 28l2.6 1.8h-1.1L39.3 28h1.1zM43 5v.3h-.6l-2.6-1.8h1.1L43 5zm-1.8 10.5l2.6 1.8h-1l-2.6-1.8h1zM42.4 28l2.6 1.8h-1L41.4 28h1zM43 3.6v.7l-1.1-.8h1l.1.1zm.3 11.9l2.6 1.8h-1.1l-2.6-1.8h1.1zM44.6 28l2.6 1.8h-1.1L43.5 28h1.1zm2.7-12.7v.7l-3.5-2.4v-.7l3.5 2.4zm0 1.5v.5H47l-3.2-2.2v-.7l3.5 2.4zm0-2.6v.4l-3.2-2.2 3.2 1.8zm-2-7.6l2.6 1.8h-.6l-2-1.1-1-.7h1zM46.6 28l2.6 1.8h-1.1L45.6 28h1zm.8-21.4L50 8.4h-1l-2.6-1.8h1zM51 2.1v.4L47.6.1l3.4 2zm0 1.2V4l-3.4-2.4V.9L51 3.3zm0 1.5v.7L47.5 3v-.7L51 4.8zm0 1.4V7l-3.4-2.4v-.8L51 6.2zm0 1.5v.7L47.5 6v-.7L51 7.7zm0 16.1v.7l-3.4-2.4v-.5l1.6.9 1.8 1.3zm0 1.5v.7l-3.4-2.4v-.7l3.4 2.4zm0 1.4v.7L47.5 25v-.7l3.5 2.4zm0 1.5v.7l-3.4-2.4v-.7l3.4 2.4zm0 1.4v.2h-.7l-2.8-1.9v-.8l3.5 2.5zM76 .1V6h-3.4V2.7h-7.7v22h3v2.8H59v-2.8h2.7v-22H55V6h-3.3V.1H76zM53 6.6l2.6 1.8h-.3l-3.2-1.8h.9zm2.1 0l2.7 1.8h-1.1l-2.6-1.8h1zm1.5-3.3l2.6 1.8H59v.6l-3.5-2.4h1.1zM59 6.5v.7l-3.5-2.4V4L59 6.5zm0 1.4v.5h-.3l-3.2-2.2v-.7L59 7.9zM61.1 5v.1h-.9l-2.6-1.8h1.1L61.1 5zm-.5 23l2.6 1.8h-.5L59.5 28h1.1zm.5-24.5v.7l-1.4-1h1.1l.3.3zM62.6 28l2.6 1.8h-1.1L61.6 28h1zm2.2 0l2.6 1.8h-1.1L63.7 28h1.1zM69 6.1v.7l-3.5-2.4v-.7L69 6.1zm0 1.4v.7l-3.5-2.4v-.6L69 7.5zM69 9v.7l-3.5-2.4v-.7L69 9zm0 1.5v.7l-3.5-2.4v-.7l3.5 2.4zm0 1.4v.7l-3.5-2.4v-.7l3.5 2.4zm0 1.5v.7l-3.5-2.4V11l3.5 2.4zm0 1.5v.7l-3.5-2.4v-.7l3.5 2.4zm0 1.5v.7l-3.5-2.4V14l3.5 2.4zm0 1.4v.7l-3.5-2.4v-.7l3.5 2.4zm0 1.5v.7l-3.5-2.4v-.7l3.5 2.4zm0 1.5v.7L65.5 19v-.7l3.5 2.5zm0 1.4v.7l-3.5-2.4v-.7l3.5 2.4zm0 1.5v.7L65.5 22v-.7l3.5 2.4zm-3.5-1l2 1.4h-1l-1-.7v-.7zm1.3 5.3l2.6 1.8h-1.1L65.8 28h1zm.3-24.7l2.6 1.8H69v.3l-3-2.1h1.1zm1.3 24.4l3.1 2.1h-1L67.9 28h.6v-.3zm.7-24.4l2.6 1.8h-1.1L68 3.3h1.1zm2.8 23.9v.7l-3.5-2.4v-.7l3.5 2.4zm0 1.5v.7L68.4 27v-.7l3.5 2.4zM72 3.9v.7l-1.8-1.3h1l.8.6zm1.9 2.7l2.6 1.8h-.2l-3.2-1.8h.8zm2.1 0l2.6 1.8h-1.1l-2.6-1.8H76zm4-4.5v.7L76.6.4V.1L79.8 2l.2.1zm0 1.5v.7l-3.4-2.4v-.7L80 3.6zm0 1.5v.7l-3.4-2.4v-.7L80 5.1zm0 1.4v.7l-3.4-2.4v-.7L80 6.5zM80 8v.4h-.4l-3.1-2.1v-.7L80 8z" fill="#e8e8e8"/></svg>