<svg xmlns="http://www.w3.org/2000/svg" viewBox="0 0 56.7 56.7"><path d="M28.3.1C12.6.1 0 12.7 0 28.4s12.7 28.3 28.3 28.3S56.7 44 56.7 28.3 43.9.1 28.3.1zm14.4 22.6v.9C42.7 33 35.6 44 22.3 44c-4 0-7.8-1.2-10.9-3.2.6.1 1.2.1 1.7.1 3.3 0 6.4-1.2 8.9-3.1-3.1-.1-5.8-2.1-6.7-4.9.5.1.9.1 1.4.1.7 0 1.3-.1 1.8-.2-3.2-.7-5.8-3.6-5.8-7v-.1c.9.6 2.1.8 3.2.9-2-1.3-3.2-3.5-3.2-6 0-1.3.3-2.5.9-3.6 3.6 4.4 8.7 7.1 14.7 7.5-.1-.6-.2-1-.2-1.6 0-3.9 3.2-7.1 7.1-7.1 2.1 0 3.9.9 5.2 2.3 1.6-.3 3.1-.9 4.5-1.7-.6 1.7-1.6 3.1-3.1 3.9 1.5-.1 2.9-.6 4.1-1.2-.7 1.3-1.8 2.6-3.2 3.6z" fill="#525961"/></svg>