<?xml version="1.0" encoding="utf-8"?>
<!-- Generator: Adobe Illustrator 22.1.0, SVG Export Plug-In . SVG Version: 6.00 Build 0)  -->
<svg version="1.1" id="Слой_1" xmlns="http://www.w3.org/2000/svg" xmlns:xlink="http://www.w3.org/1999/xlink" x="0px" y="0px"
	 viewBox="0 0 56.7 56.7" style="enable-background:new 0 0 56.7 56.7;" xml:space="preserve">
<style type="text/css">
	.st0{fill:#525961;}
</style>
<path class="st0" d="M28.3,0.1C12.6,0.1,0,12.7,0,28.4s12.7,28.3,28.3,28.3S56.7,44,56.7,28.3S43.9,0.1,28.3,0.1z M42.7,22.7v0.9
	c0,9.4-7.1,20.4-20.4,20.4c-4,0-7.8-1.2-10.9-3.2c0.6,0.1,1.2,0.1,1.7,0.1c3.3,0,6.4-1.2,8.9-3.1c-3.1-0.1-5.8-2.1-6.7-4.9
	c0.5,0.1,0.9,0.1,1.4,0.1c0.7,0,1.3-0.1,1.8-0.2c-3.2-0.7-5.8-3.6-5.8-7v-0.1c0.9,0.6,2.1,0.8,3.2,0.9c-2-1.3-3.2-3.5-3.2-6
	c0-1.3,0.3-2.5,0.9-3.6c3.6,4.4,8.7,7.1,14.7,7.5c-0.1-0.6-0.2-1-0.2-1.6c0-3.9,3.2-7.1,7.1-7.1c2.1,0,3.9,0.9,5.2,2.3
	c1.6-0.3,3.1-0.9,4.5-1.7c-0.6,1.7-1.6,3.1-3.1,3.9c1.5-0.1,2.9-0.6,4.1-1.2C45.2,20.4,44.1,21.7,42.7,22.7z"/>
</svg>
